<svg width="2741" height="842" viewBox="0 0 2741 842" fill="none" xmlns="http://www.w3.org/2000/svg">
<g clip-path="url(#clip0_197_1594)">
<mask id="mask0_197_1594" style="mask-type:luminance" maskUnits="userSpaceOnUse" x="0" y="0" width="2741" height="842">
<path d="M2741 0H0V842H2741V0Z" fill="white"/>
</mask>
<g mask="url(#mask0_197_1594)">
<path fill-rule="evenodd" clip-rule="evenodd" d="M2121.22 160.382C2110.12 160.382 2100.72 164.435 2093.1 172.394C2085.48 180.016 2081.66 189.248 2081.66 199.905C2081.66 210.566 2085.48 220.009 2093.09 227.951L2093.49 228.369H2093.64C2101.49 235.726 2110.74 239.428 2121.27 239.428C2131.99 239.428 2141.17 235.597 2148.79 227.971C2156.72 220.036 2160.78 210.644 2160.78 199.905C2160.78 189.193 2156.96 180.016 2149.34 172.394C2141.71 164.377 2132.31 160.382 2121.22 160.382ZM1552.28 266.103C1514.88 266.103 1482.88 279.921 1456.41 307.508C1429.92 335.097 1416.68 369.054 1416.68 409.179C1416.68 449.308 1429.92 482.931 1456.34 510.844L1456.35 510.851C1482.83 538.434 1514.83 552.253 1552.22 552.253C1590.56 552.253 1620.88 538.958 1642.84 512.222V545.314H1705.92V273.044H1642.89V305.687C1620.94 279.295 1590.61 266.103 1552.28 266.103ZM1101.05 267.079C1068.41 267.079 1044.86 278.098 1027.51 300.267V274.018H964.422V546.291H1027.51V394.159C1027.51 371.422 1032.93 354.789 1043.29 343.747L1043.3 343.73C1053.76 332.215 1067.26 326.444 1083.92 326.444C1099.27 326.444 1110.72 331.371 1118.59 340.916L1118.63 340.957C1126.89 350.223 1131.29 363.735 1131.29 381.801V546.236H1194.37V394.105C1194.37 370.973 1199.48 354.167 1209.15 343.125C1219.21 332.066 1232.7 326.444 1249.76 326.444C1265.1 326.444 1276.96 331.368 1285.6 341.011L1285.62 341.028C1294.26 350.352 1298.75 363.8 1298.75 381.855V546.291H1359.39L1359.5 546.236H1361.95V378.112C1361.95 344.506 1352.54 317.471 1333.45 297.269C1314.35 277.066 1289.27 267.079 1258.38 267.079C1222.55 267.079 1195.24 280.292 1176.86 306.882C1159.95 280.364 1134.56 267.079 1101.05 267.079ZM2366.89 267.079C2334.29 267.079 2310.74 278.104 2293.34 300.277V274.018H2230.26V546.291H2293.34V394.159C2293.34 371.422 2298.77 354.789 2309.13 343.747L2309.14 343.73C2319.6 332.215 2333.1 326.444 2349.76 326.444C2365.11 326.444 2376.56 331.368 2384.43 340.916L2384.47 340.957C2392.79 350.277 2397.13 363.786 2397.13 381.855V546.291H2460.21V394.159C2460.21 371.027 2465.32 354.221 2474.99 343.179C2485.05 332.117 2498.48 326.499 2515.6 326.499C2530.94 326.499 2542.8 331.422 2551.44 341.066L2551.46 341.083C2560.1 350.403 2564.59 363.854 2564.59 381.909V546.342H2625.47L2625.58 546.236H2627.78V378.112C2627.78 344.506 2618.38 317.471 2599.28 297.269C2580.19 277.066 2555.1 267.079 2524.22 267.079C2488.39 267.079 2461.08 280.292 2442.7 306.882C2425.78 280.364 2400.35 267.079 2366.89 267.079ZM1839.28 273.967H1765.79L1769 278.343L1862.76 406.358L1760.48 546.236H1834.47L1835.32 545.185L1899.78 456.968L1963.72 545.134L1964.56 546.291H2032.61L2032.62 546.236H2037.94L2034.73 541.857L1936.2 406.899L2029.96 278.343L2033.17 273.967H1959.19L1899.24 356.348L1840.12 275.12L1839.28 273.967ZM2152.87 274.018H2089.79V546.291H2152.87V274.018ZM1503.01 350.27C1518.45 334.448 1537.82 326.553 1561.33 326.553C1584.83 326.553 1604.2 334.448 1619.65 350.27L1620.05 350.679H1620.11C1635.28 366.063 1642.89 385.472 1642.89 409.179C1642.89 433.084 1635.15 452.793 1619.71 468.622C1604.27 484.068 1584.89 491.802 1561.38 491.802C1537.87 491.802 1518.5 484.068 1503.06 468.622C1487.61 452.793 1479.82 433.08 1479.82 409.179C1479.82 385.268 1487.56 365.729 1503 350.284L1503.01 350.27Z" fill="white"/>
<mask id="mask1_197_1594" style="mask-type:alpha" maskUnits="userSpaceOnUse" x="12" y="12" width="681" height="831">
<path d="M692.301 611.015V197.815C692.301 186.137 685.655 175.48 675.175 170.341L352.151 12L29.1279 170.341C18.6448 175.48 12 186.137 12 197.815V611.015C12 621.526 17.3931 631.302 26.2829 636.903L352.151 842.278L678.018 636.903C686.91 631.302 692.301 621.526 692.301 611.015Z" fill="#D9D9D9"/>
</mask>
<g mask="url(#mask1_197_1594)">
<path d="M12 171.93H148.06V648.319H12V171.93Z" fill="url(#paint0_linear_197_1594)"/>
<path d="M556.242 171.93H692.302V648.319H556.242V171.93Z" fill="url(#paint1_linear_197_1594)"/>
<path fill-rule="evenodd" clip-rule="evenodd" d="M305.935 357.166L527.641 134.939C541.604 120.941 562.629 116.743 580.895 124.305L692.301 170.419L356.981 506.069C356.915 506.135 356.848 506.2 356.78 506.262L176.66 686.818C162.697 700.817 141.672 705.016 123.406 697.455L12 651.337L305.935 357.166ZM348.475 307.075L176.664 134.983C162.697 120.961 141.659 116.749 123.376 124.317L12 170.419L243.879 402.125C246.535 404.786 250.845 404.786 253.502 402.125L348.475 307.075ZM360.531 520.116L527.641 686.794C541.604 700.807 562.636 705.013 580.912 697.448L692.301 651.337L460.379 420.125C457.719 417.464 453.409 417.464 450.753 420.125L360.534 510.503C357.885 513.157 357.885 517.458 360.531 520.116Z" fill="url(#paint2_linear_197_1594)"/>
<path opacity="0.7" d="M253.506 402.125L348.479 307.076L302.383 261.125L201.383 359.625L243.883 402.125C246.539 404.786 250.849 404.786 253.506 402.125Z" fill="url(#paint3_linear_197_1594)"/>
<path opacity="0.7" d="M360.535 510.502C357.885 513.157 357.885 517.458 360.531 520.115L400.879 560.124L504.879 464.624L460.379 420.125C457.719 417.464 453.409 417.464 450.753 420.125L360.535 510.502Z" fill="url(#paint4_linear_197_1594)"/>
</g>
</g>
</g>
<defs>
<linearGradient id="paint0_linear_197_1594" x1="80.0301" y1="149.404" x2="80.0301" y2="659.871" gradientUnits="userSpaceOnUse">
<stop stop-color="#27A576"/>
<stop offset="0.340753" stop-color="#6FD8B0"/>
<stop offset="0.5" stop-color="#6FD8B0"/>
<stop offset="0.655031" stop-color="#6FD8B0"/>
<stop offset="1" stop-color="#28A677"/>
</linearGradient>
<linearGradient id="paint1_linear_197_1594" x1="624.272" y1="149.404" x2="624.272" y2="659.871" gradientUnits="userSpaceOnUse">
<stop stop-color="#27A576"/>
<stop offset="0.340753" stop-color="#6FD8B0"/>
<stop offset="0.5" stop-color="#6FD8B0"/>
<stop offset="0.655031" stop-color="#6FD8B0"/>
<stop offset="1" stop-color="#28A677"/>
</linearGradient>
<linearGradient id="paint2_linear_197_1594" x1="352.151" y1="120.59" x2="352.151" y2="508.063" gradientUnits="userSpaceOnUse">
<stop stop-color="#A3FFDC"/>
<stop offset="1" stop-color="#66E0B2"/>
</linearGradient>
<linearGradient id="paint3_linear_197_1594" x1="285.283" y1="378.277" x2="246.42" y2="338.126" gradientUnits="userSpaceOnUse">
<stop stop-color="#36B082"/>
<stop offset="1" stop-color="#36B082" stop-opacity="0"/>
</linearGradient>
<linearGradient id="paint4_linear_197_1594" x1="388.682" y1="487.433" x2="432.634" y2="532.751" gradientUnits="userSpaceOnUse">
<stop stop-color="#36B082"/>
<stop offset="1" stop-color="#36B082" stop-opacity="0"/>
</linearGradient>
<clipPath id="clip0_197_1594">
<rect width="2741" height="842" fill="white"/>
</clipPath>
</defs>
</svg>
